<svg xmlns="http://www.w3.org/2000/svg" viewBox="0 0 591.15 511.91"><defs><style>.cls-1{fill:none}.cls-3{fill:navy}.cls-4{fill:#acb0e7}.cls-6{fill:#0000bf}.cls-9{fill:#5454a3}.cls-10{fill:#252fa0}</style><clipPath id="clip-path" transform="translate(0 -.05)"><circle class="cls-1" cx="295.58" cy="256" r="256"/></clipPath></defs><g id="Layer_2" data-name="Layer 2"><g clip-path="url(#clip-path)" id="Circle_Mask" data-name="Circle Mask"><path class="cls-1" d="M296.19 255.91l-49.23 85.27-.03.05 147.76 85.33.03.02-.09-.17-147.62-85.22 98.52-170.63.03.02 48.94-84.76v-.11l-49.03 84.92-.04-.02-49.24 85.3zM197.74 85.39zM99.32 255.87L148.44 0 99.3 255.88l.02-.01zM99.31 255.92h-.02v.01L0 256.01l99.3-.05.01-.04zM394.56 85.6L443.94.08 394.56 85.6z"/><path class="cls-1" d="M296.19 255.91l-.09-.16-49.13-85.08 49.22 85.24zM99.37 255.96l83.86-.04h-83.8l-.06.04zM394.71 426.58l-245.54 85.06-.79.27 246.33-85.33zM197.86 426.21l45.41-78.65-45.46 78.6.05.05z"/><path class="cls-3" d="M296.19 255.91l-98.58.01.17 170.22.03.02 45.46-78.6 3.65-6.33h.01l.03-.05 49.23-85.27zM296.19 255.91z"/><path class="cls-4" d="M590.73 256h.42L394.56 85.6 443.94.08l-246.1 85.27 147.61 85.23-.02.03.04.02 49.03-84.92v.11l.09-.17-.01 12.89-.19 157.4h.01v.06h98.3l-147.15 85.19.03.05 49.24 85.28-.03-.02-.16-.09.09.17 49.27 85.33L492.83 256h97.9zM394.71 426.58h.01-.01zM394.69 426.56l.03.02-.03-.02z"/><path fill="#7479b7" d="M345.53 170.56l-98.52 170.63 147.62 85.22.16.09.03.02-49.24-85.28-.03-.05L492.7 256h-98.3v-.06h-.01l.19-157.4.01-12.89-.09.17-48.94 84.76-.03-.02z"/><path class="cls-6" d="M296.19 255.91l-49.22-85.24-147.54 85.25h83.8l14.38-.01v.01l98.58-.01zM99.29 255.92h.02l.01-.05-.02.01-.01.04z"/><path fill="#0b1589" d="M197.75 85.38l-.01.01.01.02 49.22 85.26 49.13 85.08.09.16 49.24-85.3.02-.03-147.61-85.23-.09.03z"/><path fill="#6666b3" d="M394.71 426.58l-246.33 85.33h295.61l-49.27-85.33h-.01z"/><path class="cls-9" d="M590.73 256h-97.9l-48.84 255.91L591.15 256h-.42z"/><path class="cls-10" d="M197.81 426.16l-.03-.02v.07L0 256.01l148.38 255.9 49.48-85.7-.05-.05z"/><path fill="#969cf1" d="M394.71 426.58h.01l-.03-.02-147.76-85.33h-.01l-3.65 6.33-45.41 78.65-49.48 85.7.79-.27 245.54-85.06z"/><path fill="#5e68f4" d="M197.78 426.14l-.17-170.22v-.01l-14.38.01-83.86.04.06-.04 147.54-85.25-49.22-85.26-.01-.02-.03-.05L148.48.08l-.04-.08-49.12 255.87-.01.05-.01.04-99.3.05 197.78 170.2v-.07z"/><path class="cls-9" d="M591.15 256L443.94.08 394.56 85.6 591.15 256zM197.74 85.39l.01-.01.09-.03L443.94.08H148.48l49.23 85.26.03.05z"/><path class="cls-10" d="M99.29 255.92l.01-.04L148.44 0 0 256.01l99.29-.08v-.01z"/></g></g></svg>